<svg width="1120" height="268" viewBox="0 0 2241 537" fill="none" xmlns="http://www.w3.org/2000/svg">
<path d="M726.155 353.289C744.397 353.289 754.506 363.713 754.506 382.757V396.589H724.566V383.959C724.566 380.556 722.984 378.949 719.612 378.949H693.244C689.872 378.949 688.29 380.556 688.29 383.959V398.392C688.29 402.199 689.278 403.199 692.65 404.204L736.665 415.627C749.552 419.036 756.089 427.056 756.089 439.484V465.138C756.089 484.182 745.786 494.605 726.95 494.605H685.512C667.27 494.605 657.161 484.182 657.161 465.138V452.514H687.101V463.943C687.101 467.345 688.684 468.952 692.055 468.952H721.001C724.372 468.952 725.955 467.345 725.955 463.943V446.499C725.955 443.494 724.372 441.685 721.201 440.889L675.997 429.061C664.299 426.05 658.35 417.632 658.35 403.806V382.757C658.35 363.713 668.659 353.289 687.495 353.289H726.155ZM1059.23 353.289C1077.95 353.289 1088.2 363.713 1088.2 382.757V465.138C1088.2 484.182 1077.95 494.605 1059.23 494.605H1018.24C999.522 494.605 989.275 484.182 989.275 465.138V382.757C989.275 363.713 999.522 353.289 1018.24 353.289H1059.23ZM1545.84 353.289C1564.08 353.289 1574.19 363.713 1574.19 382.757V396.589H1544.25V383.959C1544.25 380.556 1542.67 378.949 1539.29 378.949H1512.93C1509.56 378.949 1507.97 380.556 1507.97 383.959V398.392C1507.97 402.199 1508.97 403.199 1512.34 404.204L1556.35 415.627C1569.23 419.036 1575.77 427.056 1575.77 439.484V465.138C1575.77 484.182 1565.47 494.605 1546.63 494.605H1505.2C1486.96 494.605 1476.85 484.182 1476.85 465.138V452.514H1506.78V463.943C1506.78 467.345 1508.37 468.952 1511.74 468.952H1540.69C1544.05 468.952 1545.64 467.345 1545.64 463.943V446.499C1545.64 443.494 1544.05 441.685 1540.88 440.889L1495.69 429.061C1483.99 426.05 1478.04 417.632 1478.04 403.806V382.757C1478.04 363.713 1488.35 353.289 1507.18 353.289H1545.84ZM1878.92 353.289C1897.64 353.289 1907.89 363.713 1907.89 382.757V465.138C1907.89 484.182 1897.64 494.605 1878.92 494.605H1837.93C1819.21 494.605 1808.96 484.182 1808.96 465.138V382.757C1808.96 363.713 1819.21 353.289 1837.93 353.289H1878.92ZM2041.44 353.289C2060.16 353.289 2070.41 363.713 2070.41 382.757V465.138C2070.41 484.182 2060.16 494.605 2041.44 494.605H2000.45C1981.73 494.605 1971.48 484.182 1971.48 465.138V382.757C1971.48 363.713 1981.73 353.289 2000.45 353.289H2041.44ZM889.054 353.289C908.157 353.289 918.612 363.305 918.612 381.604V411.651C918.612 429.95 908.157 439.965 889.054 439.965H850.449V487.539H819.685V353.289H889.054ZM1220.74 353.289C1239.73 353.289 1250.12 363.305 1250.12 381.599V408.76C1250.12 422.824 1244.33 431.874 1232.73 435.533L1250.73 487.539H1217.75L1201.96 437.076H1182.37V487.539H1151.8V353.289H1220.74ZM1406.18 353.289V378.906H1374.92V487.539H1345.77V378.906H1314.32V353.289H1406.18ZM1706.23 353.289C1724.92 353.289 1735.14 363.311 1735.14 381.604V397.017C1735.14 407.992 1729.84 414.927 1719.41 418.202C1732 420.317 1738.3 427.641 1738.3 439.965V459.225C1738.3 477.524 1728.06 487.539 1709.39 487.539H1639.37V353.289H1706.23ZM2171.23 353.289V406.072H2184.63L2207.88 383.725C2210.05 381.799 2211.04 378.906 2211.04 375.059V353.289H2239.61V379.872C2239.61 385.846 2237.64 390.653 2233.89 394.124L2208.47 418.397L2235.27 448.249C2238.43 451.713 2240 456.144 2240 461.54V487.539H2209.85V467.126C2209.85 463.655 2208.87 460.762 2206.69 458.258L2182.06 430.91H2171.23V487.539H2141.07V353.289H2171.23ZM1053.13 379.55H1024.36C1021 379.55 1019.43 381.157 1019.43 384.559V463.335C1019.43 466.744 1021 468.351 1024.36 468.351H1053.13C1056.47 468.351 1058.05 466.744 1058.05 463.335V384.559C1058.05 381.157 1056.47 379.55 1053.13 379.55ZM1872.81 379.55H1844.04C1840.69 379.55 1839.11 381.157 1839.11 384.559V463.335C1839.11 466.744 1840.69 468.351 1844.04 468.351H1872.81C1876.16 468.351 1877.74 466.744 1877.74 463.335V384.559C1877.74 381.157 1876.16 379.55 1872.81 379.55ZM2035.33 379.55H2006.56C2003.21 379.55 2001.63 381.157 2001.63 384.559V463.335C2001.63 466.744 2003.21 468.351 2006.56 468.351H2035.33C2038.69 468.351 2040.26 466.744 2040.26 463.335V384.559C2040.26 381.157 2038.69 379.55 2035.33 379.55ZM1703.29 430.91H1669.46V462.689H1703.29C1706.63 462.689 1708.2 461.151 1708.2 457.876V435.73C1708.2 432.454 1706.63 430.91 1703.29 430.91ZM882.817 378.717H850.449V414.538H882.817C886.237 414.538 887.848 413 887.848 409.724V383.531C887.848 380.255 886.237 378.717 882.817 378.717ZM1214.55 378.33H1182.37V412.036H1214.55C1217.94 412.036 1219.54 410.493 1219.54 407.223V383.143C1219.54 379.867 1217.94 378.33 1214.55 378.33ZM1700.34 378.134H1669.46V406.072H1700.34C1703.68 406.072 1705.25 404.522 1705.25 401.252V382.953C1705.25 379.678 1703.68 378.134 1700.34 378.134Z" fill="#1493FF"/>
<path d="M1645.32 43.018C1647.06 43.018 1648.48 44.435 1648.48 46.183V198.205C1648.48 225.683 1664.56 242.116 1689.71 242.116C1714.86 242.116 1731.28 225.683 1731.28 198.205H1731.4V46.183C1731.4 44.435 1732.82 43.018 1734.57 43.018H1774.39C1776.14 43.018 1777.56 44.435 1777.56 46.183V199.882C1777.56 250.542 1738.68 283.721 1689.73 283.721C1640.79 283.721 1601.9 250.5 1601.9 199.882V46.183C1601.9 44.435 1603.32 43.018 1605.07 43.018H1645.32ZM2122.62 43.018C2123.48 42.9896 2124.31 43.3105 2124.93 43.9071C2125.55 44.5038 2125.89 45.3251 2125.89 46.183V240.104H2224.41C2225.76 240.084 2226.97 240.916 2227.43 242.179L2240.15 277.454C2240.48 278.418 2240.33 279.482 2239.74 280.313C2239.15 281.144 2238.2 281.641 2237.18 281.646H2082.38C2080.63 281.646 2079.21 280.229 2079.21 278.481V46.183C2079.21 44.435 2080.63 43.018 2082.38 43.018H2122.62ZM2020.65 43.0599C2021.67 43.0655 2022.62 43.5616 2023.21 44.3926C2023.8 45.2236 2023.95 46.2879 2023.62 47.2519L2010.92 82.4855C2010.47 83.7419 2009.28 84.5803 2007.94 84.5814H1899.55V140.544H1986.84C1987.68 140.544 1988.48 140.878 1989.07 141.471C1989.67 142.065 1990 142.87 1990 143.709V178.943C1990 180.691 1988.58 182.108 1986.84 182.108H1899.55V240.125H2007.92C2009.26 240.126 2010.45 240.964 2010.9 242.221L2023.6 277.454C2023.93 278.418 2023.78 279.482 2023.19 280.313C2022.6 281.144 2021.65 281.641 2020.63 281.646H1856.12C1854.37 281.646 1852.96 280.229 1852.96 278.481V46.2249C1852.96 44.4769 1854.37 43.0599 1856.12 43.0599H2020.65ZM1447.38 43.1228C1472.18 43.1228 1494.63 50.1444 1510.39 65.9062C1537.2 92.63 1534.51 125.474 1534.51 161.336L1534.52 163.78C1534.62 198.779 1536.59 232.664 1510.39 258.863C1494.65 274.604 1472.18 281.646 1447.38 281.646H1364.41C1362.67 281.646 1361.25 280.229 1361.25 278.481V115.916C1361.25 115.077 1361.58 114.272 1362.18 113.678C1362.77 113.085 1363.57 112.752 1364.41 112.752H1404.68C1405.52 112.752 1406.33 113.085 1406.92 113.678C1407.51 114.272 1407.85 115.077 1407.85 115.916V239.936H1442.93C1458.93 239.936 1469.74 234.989 1477.79 225.264C1486.51 214.554 1487.85 197.45 1487.85 161.253C1487.85 125.055 1486.51 109.985 1477.79 99.2534C1469.74 89.6118 1459.03 84.5814 1442.93 84.5814H1359.64C1358.19 84.5514 1356.94 83.5412 1356.62 82.1291L1349.62 46.8956C1349.43 45.968 1349.68 45.0078 1350.28 44.2777C1350.88 43.5476 1351.77 43.124 1352.72 43.1228H1447.38ZM1278.98 43.018C1280.72 43.018 1282.14 44.435 1282.14 46.183V278.481C1282.14 280.229 1280.72 281.646 1278.98 281.646H1242.29C1241.22 281.648 1240.22 281.103 1239.63 280.2L1146.04 135.179V278.481C1146.04 280.229 1144.62 281.646 1142.88 281.646H1102.61C1100.86 281.646 1099.44 280.229 1099.44 278.481V46.2458C1099.44 44.4979 1100.86 43.0809 1102.61 43.0809H1139.29C1140.37 43.0795 1141.37 43.6241 1141.95 44.5271L1235.54 189.15V46.183C1235.54 44.435 1236.96 43.018 1238.71 43.018H1278.98ZM922.049 45.0931L837.554 277.412C837.223 278.376 837.377 279.441 837.967 280.272C838.557 281.103 839.511 281.599 840.53 281.604H882.453C883.795 281.612 884.997 280.772 885.45 279.508L899.138 239.412H983.947L997.299 279.487C997.753 280.751 998.954 281.591 1000.3 281.583H1042.09C1043.11 281.578 1044.07 281.082 1044.66 280.251C1045.25 279.42 1045.4 278.355 1045.07 277.391L960.114 45.0931C959.663 43.8367 958.473 42.9982 957.138 42.9971H925.025C923.69 42.9982 922.5 43.8367 922.049 45.0931ZM828.897 43.0599C829.916 43.0655 830.87 43.5616 831.46 44.3926C832.05 45.2236 832.204 46.2879 831.873 47.2519L818.982 82.4855C818.531 83.7419 817.341 84.5803 816.006 84.5814H707.615V143.269H792.445C793.465 143.275 794.419 143.771 795.009 144.602C795.599 145.433 795.753 146.497 795.422 147.461L782.657 182.695C782.206 183.951 781.015 184.789 779.68 184.791H707.615V278.481C707.615 280.229 706.198 281.646 704.45 281.646H664.184C662.436 281.646 661.019 280.229 661.019 278.481V46.2249C661.019 44.4769 662.436 43.0599 664.184 43.0599H828.897ZM942.234 113.38L971.391 200.196H912.071L942.234 113.38Z" fill="#1F375B"/>
<path d="M310.631 1.7644L311.116 1.79002C388.94 7.9916 464.444 31.2454 532.271 69.901C532.684 70.0575 533.072 70.2721 533.424 70.5382C534.539 71.3866 535.218 72.688 535.275 74.0878C535.305 74.1788 535.275 74.2395 535.275 74.3305V74.5732C534.33 263.595 433.709 438.09 270.581 533.602C269.962 534.124 269.154 534.361 268.352 534.258C267.55 534.154 266.828 533.718 266.363 533.056L266.09 532.54C239.551 483.963 221.531 431.199 212.811 376.537V376.143L212.879 375.696C213.009 375.268 213.317 374.907 213.737 374.716C214.298 374.462 214.955 374.557 215.421 374.96L215.633 375.111C231.718 392.062 249.117 407.715 267.668 421.924C361.128 350.586 422.185 244.845 437.243 128.243C383.514 105.86 325.873 94.3714 267.668 94.4453C263.177 94.4453 258.717 94.6576 254.257 94.6576H253.832C253.34 94.6072 252.9 94.3288 252.644 93.9055C252.387 93.4822 252.344 92.9632 252.528 92.5036L255.499 86.2572C269.571 57.2111 286.493 29.6275 306.019 3.91375L306.444 3.33731C307.382 2.29115 308.741 1.72289 310.145 1.79002L310.631 1.7644ZM267 1.89963e-05L267.42 0.0563734C268.087 0.240044 268.578 0.851563 268.578 1.57765C268.578 2.01781 268.39 2.43709 268.062 2.73053C248.029 31.4831 230.961 62.1913 217.12 94.3846C216.581 96.457 214.71 97.9037 212.569 97.9039H212.387C173.099 102.752 134.65 112.907 98.0923 128.091C100.825 149.423 105.125 170.526 110.957 191.227C136.269 179.674 162.789 170.974 190.025 165.287C190.245 165.239 190.473 165.239 190.693 165.287L191.106 165.35C191.763 165.542 192.24 166.148 192.24 166.864L192.197 167.255L192.058 167.623C183.855 198.979 178.614 231.037 176.402 263.373V263.585C176.435 263.908 176.435 264.233 176.402 264.556C175.991 266.419 174.513 267.861 172.64 268.227C163.673 271.41 154.873 275.045 146.274 279.119C154.906 295.309 164.543 310.944 175.128 325.932L175.431 326.387C175.887 327.114 176.129 327.955 176.129 328.814V329.026C179.345 386.356 192.091 442.75 213.843 495.891L214.086 496.346C214.1 496.467 214.1 496.589 214.086 496.71C214.079 497.264 213.783 497.774 213.304 498.054C212.826 498.334 212.235 498.342 211.749 498.075L211.385 497.802C78.9065 397.284 0.76986 240.831 0 74.5429V74.1552L0.0882808 73.4146C0.32963 72.2143 1.03303 71.1442 2.06318 70.4471L2.39693 70.2651C82.9716 24.1966 174.184 -0.0247622 267 1.89963e-05Z" fill="#1493FF"/>
</svg>